<?xml version="1.0" encoding="UTF-8" standalone="no"?>
<!-- Created with Inkscape (http://www.inkscape.org/) -->

<svg
   width="210mm"
   height="297mm"
   viewBox="0 0 210 297"
   version="1.1"
   id="svg9026"
   inkscape:version="1.1.2 (b8e25be833, 2022-02-05)"
   sodipodi:docname="drawing.svg"
   xmlns:inkscape="http://www.inkscape.org/namespaces/inkscape"
   xmlns:sodipodi="http://sodipodi.sourceforge.net/DTD/sodipodi-0.dtd"
   xmlns="http://www.w3.org/2000/svg"
   xmlns:svg="http://www.w3.org/2000/svg">
  <sodipodi:namedview
     id="namedview9028"
     pagecolor="#ffffff"
     bordercolor="#666666"
     borderopacity="1.0"
     inkscape:pageshadow="2"
     inkscape:pageopacity="0.0"
     inkscape:pagecheckerboard="0"
     inkscape:document-units="mm"
     showgrid="false"
     inkscape:zoom="0.57370932"
     inkscape:cx="396.54228"
     inkscape:cy="561.25984"
     inkscape:window-width="1858"
     inkscape:window-height="1057"
     inkscape:window-x="-8"
     inkscape:window-y="-8"
     inkscape:window-maximized="1"
     inkscape:current-layer="layer1" />
  <defs
     id="defs9023" />
  <g
     inkscape:label="Layer 1"
     inkscape:groupmode="layer"
     id="layer1">
    <g
       id="g9209"
       transform="matrix(2.7270012,0,0,2.7270012,310.21108,-122.89253)">
      <path
         id="use155"
         d="m -93.051744,76.087477 c 0,0.73078 -0.592138,1.322917 -1.322917,1.322917 h -17.859379 c -0.73051,0 -1.32291,-0.592137 -1.32291,-1.322917 V 46.586436 c 0,-0.730779 0.5924,-1.322917 1.32291,-1.322917 h 17.859379 c 0.730779,0 1.322917,0.592138 1.322917,1.322917 z"
         fill="#ffffff"
         stroke="#000000"
         stroke-width="0.396875" />
      <g
         id="use157"
         fill="none"
         style="stroke:#000000"
         transform="matrix(0.26458333,0,0,0.26458333,-113.49081,44.93279)">
        <path
           d="M 3,17.75 H 6.5"
           id="path9091" />
        <path
           d="M 12,17.75 H 8.5"
           id="path9093" />
        <path
           d="m 4.5,17.75 3,-13.25 3,13.25"
           id="path9095" />
        <path
           d="m 5.25,14.5 h 4.5"
           id="path9097" />
      </g>
      <g
         id="use159"
         fill="none"
         style="stroke:#000000"
         transform="matrix(0.26458333,0,0,0.26458333,-114.01997,45.197374)">
        <path
           d="m 73.75,108.5 h -4.5"
           id="path9073" />
        <path
           d="M 76,105.25 H 72.5"
           id="path9075" />
        <path
           d="m 67,105.25 h 3.5"
           id="path9077" />
        <path
           d="m 74.5,105.25 -3,13.25 -3,-13.25"
           id="path9079" />
      </g>
      <path
         id="use161"
         d="m -111.2056,51.426988 c 0,0 0.33073,-0.264583 0.33073,-0.631296 0,-0.214841 -0.19103,-0.571235 -0.63156,-0.571235 -0.44053,0 -0.6313,0.356658 -0.6313,0.571235 0,0.366713 0.33073,0.631296 0.33073,0.631296 -0.3675,-0.286014 -1.02235,-0.09075 -1.02235,0.481013 0,0.286279 0.23389,0.601398 0.6014,0.601398 0.4408,0 0.6313,-0.481013 0.6313,-0.481013 0,0 0.0558,0.548217 -0.27067,0.841904 h 0.72152 c -0.3265,-0.293423 -0.27041,-0.841904 -0.27041,-0.841904 0,0 0.19077,0.481013 0.63156,0.481013 0.36751,0 0.60113,-0.315119 0.60113,-0.601398 0,-0.571765 -0.6551,-0.767027 -1.02208,-0.481013 z"
         style="stroke-width:0.264583" />
      <path
         id="use163"
         d="m -95.403096,71.246925 c 0,0 -0.33073,0.264584 -0.33073,0.631296 0,0.214842 0.19103,0.571236 0.631561,0.571236 0.440531,0 0.631296,-0.356659 0.631296,-0.571236 0,-0.366712 -0.33073,-0.631296 -0.33073,-0.631296 0.367507,0.286015 1.02235,0.09075 1.02235,-0.481012 0,-0.286279 -0.233891,-0.601398 -0.601397,-0.601398 -0.440796,0 -0.631296,0.481013 -0.631296,0.481013 0,0 -0.05583,-0.548217 0.270668,-0.841905 h -0.721518 c 0.326496,0.293423 0.270404,0.841905 0.270404,0.841905 0,0 -0.190765,-0.481013 -0.631561,-0.481013 -0.367506,0 -0.601133,0.315119 -0.601133,0.601398 0,0.571765 0.655108,0.767027 1.022086,0.481012 z"
         style="stroke-width:0.264583" />
      <path
         id="use165"
         d="m -102.73311,61.108357 c 0,0 0.62838,-0.502709 0.62838,-1.199621 0,-0.407988 -0.36221,-1.085321 -1.19962,-1.085321 -0.8374,0 -1.19962,0.677598 -1.19962,1.085321 0,0.696912 0.62839,1.199621 0.62839,1.199621 -0.69797,-0.543719 -1.94231,-0.172509 -1.94231,0.914135 0,0.543984 0.4445,1.142471 1.14247,1.142471 0.83741,0 1.19962,-0.914135 1.19962,-0.914135 0,0 0.10636,1.041929 -0.51408,1.59967 h 1.37107 c -0.62045,-0.557477 -0.51409,-1.59967 -0.51409,-1.59967 0,0 0.36222,0.914135 1.19962,0.914135 0.69824,0 1.14247,-0.598752 1.14247,-1.142471 0,-1.086644 -1.24433,-1.457854 -1.9423,-0.914135 z"
         style="stroke-width:0.264583" />
    </g>
  </g>
</svg>
